<svg width="200" height="200" viewBox="0 0 200 200" fill="none" xmlns="http://www.w3.org/2000/svg">
<rect x="24" y="7" width="64" height="183" fill="#C4C4C4"/>
<path d="M51.7616 81.4889L90.8476 125.814L149.205 73.0022L149.206 73.0008L173.794 50.7486L134.71 6.42463L88.7975 47.9721L51.7616 81.4889Z" fill="#E7E8E5"/>
<path d="M175 136.606L125.461 190L54.0781 124.143L54.0772 124.141L24 96.3921L73.5368 43L129.697 94.8103L175 136.606Z" fill="#CFE7FF"/>
<path d="M129.262 174.348L158.661 142.621C160.656 140.467 160.526 137.106 158.369 135.114L76.377 59.3751C74.1811 57.3458 70.7542 57.4792 68.7227 59.6709L39.4404 91.2719C37.4258 93.4465 37.5579 96.8401 39.7354 98.8507L121.781 174.637C123.927 176.62 127.276 176.49 129.262 174.348V174.348ZM164.747 138.625L125.762 180.696L33.321 95.3049L72.3051 53.2341L164.747 138.625" fill="#C0D8FB"/>
<path d="M88.5896 128.233C82.3547 122.477 81.9765 112.763 87.7448 106.541C93.5132 100.317 103.244 99.9389 109.478 105.697C115.714 111.455 116.091 121.168 110.324 127.39C104.555 133.615 94.8243 133.991 88.5896 128.233" fill="#C0D8FB"/>
</svg>
