<svg width="225" height="62" viewBox="0 0 225 62" fill="none" xmlns="http://www.w3.org/2000/svg">
<path fill-rule="evenodd" clip-rule="evenodd" d="M47.894 0.45225C39.7645 1.38675 32.5265 8.57175 30.899 17.3232L30.3235 20.4167H20.1615H10V15.4167V10.4167H5H0L0.00600004 27.0417C0.0125 44.9672 0.229 46.9097 2.688 51.1057C4.6505 54.4552 8.4155 57.8932 12 59.6102C14.97 61.0327 15.6805 61.1667 20.25 61.1642C24.67 61.1617 25.5955 60.9997 28.229 59.7692C32.069 57.9748 34.083 56.4147 36.485 53.3762C40.3305 48.5112 40.6365 46.9862 40.962 31.0832L41.25 16.9997L42.7565 14.8332C45.956 10.2327 52.1385 9.06775 56.6235 12.2197C59.005 13.8932 60.9795 16.9772 60.992 19.0417L61 20.4167H66.297H71.594L71.265 17.7917C70.6 12.4862 66.733 6.45425 62.085 3.47125C57.814 0.73075 53.4855 -0.19025 47.894 0.45225ZM124.347 0.48275C118.45 1.30525 111.83 6.39125 109.212 12.1102C108.473 13.7232 107.763 16.5857 107.445 19.2367C106.777 24.7907 105.566 27.1212 102.299 29.1402C100.298 30.3767 99.3335 30.6477 97.0485 30.6152C93.854 30.5702 91.935 29.7187 89.6555 27.3342C87.922 25.5207 87 23.5422 87 21.6342C87 20.4257 86.9625 20.4167 82.0295 20.4167C79.2955 20.4167 76.936 20.6157 76.786 20.8587C76.6355 21.1022 76.7545 22.6208 77.0495 24.2337C78.6085 32.7447 86.061 39.7602 94.6195 40.7742L97 41.0562V51.2362V61.4167H102.25H107.5V49.6667C107.5 43.2042 107.681 37.9167 107.901 37.9167C108.122 37.9167 109.58 36.6592 111.142 35.1222C115.011 31.3142 116.878 27.3892 117.426 21.9102C117.901 17.1637 118.622 15.4282 121.115 13.0332C126.395 7.96075 135.717 10.8792 137.555 18.1797L138.118 20.4167H143.13H148.14L147.86 17.7042C146.962 8.99925 138.824 1.18625 129.75 0.317251C128.375 0.185751 125.943 0.26025 124.347 0.48275ZM170.587 0.42925C164.391 1.33125 157.903 6.33425 155.043 12.4167C153.773 15.1187 153.747 15.3927 153.594 28.0417L153.439 40.9167H158.469H163.5L163.503 30.2917C163.505 24.4207 163.74 18.8217 164.03 17.7782C164.712 15.3202 167.225 12.4942 169.745 11.3492C171.329 10.6298 173.035 10.4362 177.875 10.4277L184 10.4167V35.9167V61.4167H189.25H194.5V35.8677V10.3187L201.169 10.4927C207.485 10.6577 207.941 10.7387 209.794 12.0337C210.87 12.7852 212.312 14.2307 213 15.2457C214.234 17.0677 214.252 17.2383 214.4 29.0037L214.551 40.9167H219.775H225V30.2347C225 24.3602 224.772 18.3412 224.493 16.8597C223.742 12.8697 221.867 9.45325 218.706 6.31875C215.277 2.91625 211.685 1.08375 207.163 0.430251C203.201 -0.142749 174.521 -0.14375 170.587 0.42925ZM30.489 37.0417C30.4765 44.0202 29.8055 46.2292 26.9745 48.6117C24.7625 50.4727 23.278 50.9877 20.122 50.9877C16.5455 50.9882 13.7345 49.3843 11.787 46.2327C10.3585 43.9207 10.273 43.4762 10.0825 37.3577L9.882 30.9167H20.191H30.5L30.489 37.0417Z" fill="#C5D8D1"/>
</svg>
