<svg width="164" height="43" viewBox="0 0 164 43" fill="none" xmlns="http://www.w3.org/2000/svg">
<path fill-rule="evenodd" clip-rule="evenodd" d="M34.9094 0.316636C28.9839 0.970912 23.7082 6.00138 22.5219 12.1286L22.1025 14.2945H14.6955H7.28889V10.7938V7.29313H3.64444H0L0.00437336 18.9329C0.00911114 31.4831 0.166915 32.8431 1.95925 35.7809C3.3897 38.126 6.13396 40.5331 8.74667 41.7352C10.9115 42.7311 11.4293 42.825 14.76 42.8232C17.9817 42.8215 18.6563 42.708 20.5758 41.8465C23.3747 40.5901 24.8427 39.4979 26.5935 37.3706C29.3965 33.9644 29.6195 32.8967 29.8567 21.7625L30.0667 11.9021L31.1647 10.3853C33.4968 7.1643 38.0032 6.34865 41.2722 8.55547C43.0081 9.72715 44.4473 11.8864 44.4564 13.3318L44.4622 14.2945H48.3231H52.1841L51.9443 12.4566C51.4596 8.74206 48.6409 4.51884 45.2531 2.43034C42.14 0.511624 38.985 -0.133201 34.9094 0.316636ZM90.6351 0.33799C86.3369 0.913851 81.5116 4.47474 79.6031 8.47881C79.0648 9.60812 78.5476 11.6123 78.3155 13.4683C77.8289 17.3569 76.9462 18.9885 74.5642 20.4021C73.1057 21.2678 72.4031 21.4576 70.7376 21.4348C68.4091 21.4033 67.0104 20.8071 65.3489 19.1377C64.0854 17.868 63.4133 16.4827 63.4133 15.1469C63.4133 14.3008 63.386 14.2945 59.7904 14.2945C57.7976 14.2945 56.0778 14.4338 55.9685 14.6039C55.8588 14.7744 55.9455 15.8376 56.1605 16.9669C57.2969 22.9257 62.7289 27.8375 68.9671 28.5475L70.7022 28.7449V35.8723V43H74.5289H78.3556V34.7734C78.3556 30.2488 78.4871 26.5468 78.6478 26.5468C78.8089 26.5468 79.8716 25.6664 81.0098 24.5903C83.8302 21.9242 85.1911 19.1762 85.5905 15.3401C85.9364 12.0169 86.4623 10.8019 88.2794 9.12503C92.1275 5.5736 98.9226 7.61694 100.263 12.7283L100.673 14.2945H104.326H107.978L107.774 12.3954C107.119 6.30069 101.187 0.830535 94.5733 0.222118C93.5711 0.13005 91.7988 0.18221 90.6351 0.33799ZM124.339 0.300533C119.822 0.932054 115.094 4.43483 113.009 8.6934C112.083 10.5852 112.065 10.777 111.953 19.633L111.84 28.6472H115.507H119.173L119.176 21.2083C119.177 17.0978 119.349 13.1778 119.56 12.4472C120.057 10.7262 121.888 8.74766 123.726 7.946C124.88 7.44226 126.123 7.30678 129.651 7.30083L134.116 7.29313V25.1466V43H137.942H141.769V25.1123V7.22451L146.629 7.34634C151.234 7.46186 151.566 7.51857 152.916 8.42525C153.7 8.9514 154.752 9.96344 155.253 10.6741C156.153 11.9497 156.166 12.0691 156.274 20.3065L156.383 28.6472H160.192H164V21.1684C164 17.0555 163.834 12.8413 163.63 11.8041C163.083 9.01056 161.716 6.61855 159.413 4.42398C156.913 2.04177 154.295 0.758771 150.999 0.301233C148.111 -0.0999439 127.207 -0.100644 124.339 0.300533ZM22.2231 25.9342C22.214 30.8201 21.7249 32.3667 19.6614 34.0348C18.0491 35.3377 16.9671 35.6983 14.6667 35.6983C12.0598 35.6986 10.0109 34.5756 8.59141 32.3692C7.5502 30.7504 7.48788 30.4392 7.34902 26.1555L7.20288 21.6459H14.717H22.2311L22.2231 25.9342Z" fill="#C5D8D1"/>
</svg>
