<svg width="59" height="18" viewBox="0 0 59 18" fill="none" xmlns="http://www.w3.org/2000/svg">
<path d="M31.4385 0.257402C30.9685 0.350982 29.6527 0.842285 28.5249 1.31019C26.7391 2.03544 26.1987 2.15242 24.5775 2.17582C22.8152 2.17582 22.2043 2.03544 20.63 1.21661C20.5125 1.16982 20.442 2.03544 20.442 3.11163V5.10023L21.1704 5.264C21.7109 5.38098 21.8518 5.52135 21.7344 5.80209C20.818 8.18842 20.63 9.10083 20.724 10.9023C20.7945 12.3996 20.959 13.0078 21.4524 13.8501C22.8857 16.3066 25.4938 17.6869 28.1959 17.4764C30.0522 17.3126 30.9215 16.9617 33.2712 15.441C35.1274 14.2244 36.0908 13.9203 37.4771 14.084L38.2995 14.1776V12.3528V10.5279H36.9367C35.0099 10.5279 33.6236 10.9958 31.5324 12.3762C28.7364 14.1776 27.632 14.435 26.0812 13.5927C24.1545 12.5867 23.6141 10.1302 24.7889 7.81409C25.6583 6.15302 26.0577 5.7787 27.3735 5.42777C28.0315 5.264 29.3473 4.79609 30.3106 4.39837C31.6734 3.83688 32.5193 3.64972 34.0701 3.55614C35.9968 3.46256 36.5137 3.57954 38.135 4.39837C38.229 4.44516 38.2995 3.60293 38.2995 2.50335V0.514751L37.2656 0.257402C36.0438 -0.0467381 32.7073 -0.0467381 31.4385 0.257402Z" fill="#C5D8D1"/>
<path d="M56.2744 0.561488C55.0056 1.14637 54.0657 2.05879 53.5958 3.25195L53.2903 3.97721H49.8363H46.3823L45.2075 2.85423C44.1031 1.80144 42.7873 1.16977 41.6125 1.16977C41.1426 1.16977 41.1191 1.28674 41.1191 2.90102V4.60888L41.824 4.74925C42.2704 4.84284 42.6934 5.17037 42.9988 5.66167C43.4217 6.36353 43.4687 6.85483 43.4687 10.9256V15.4409L44.4321 16.1194C45.7949 17.102 46.8523 17.4295 48.873 17.4295C50.9877 17.4295 52.7734 16.7043 54.2067 15.2772C55.8984 13.5927 56.2509 12.5399 56.3919 8.5393C56.5329 4.60888 56.6738 4.18777 58.0601 3.64967L58.906 3.29874L58.953 1.66107L59 0H58.2246C57.8017 0 56.9088 0.257349 56.2744 0.561488ZM52.8674 9.12418C52.8674 10.0366 52.7264 11.1128 52.5384 11.5339C51.857 13.1716 49.6484 14.318 47.9801 13.8968L47.1107 13.6863L47.0402 10.9022C47.0167 9.35813 47.0402 7.95441 47.0872 7.79065C47.1812 7.55669 47.9331 7.48651 50.0478 7.48651H52.8674V9.12418Z" fill="#C5D8D1"/>
<path d="M2.27917 5.38102C1.78574 5.52139 1.08084 5.77874 0.704898 5.9659C0 6.31683 0 6.34022 0 8.4458V10.5748L0.798885 9.87292C1.76225 9.03069 3.61848 8.56278 5.14576 8.79673C5.75667 8.89032 7.02549 9.31143 7.98885 9.73255C10.503 10.8087 11.7013 11.0661 13.9335 10.9491C15.2963 10.8789 16.1422 10.6917 16.8706 10.3408L17.8574 9.82613V7.83753C17.8574 5.82553 17.7164 5.52139 17.129 6.24664C16.0247 7.58018 12.8057 7.88432 10.456 6.87832C6.81402 5.33423 4.29988 4.88971 2.27917 5.38102Z" fill="#C5D8D1"/>
</svg>
