<svg width="155" height="47" viewBox="0 0 155 47" fill="none" xmlns="http://www.w3.org/2000/svg">
<path d="M82.604 1.05786L82.6021 1.05824C81.9892 1.18029 80.8199 1.56303 79.4305 2.07029C78.0424 2.57707 76.4381 3.20679 74.9572 3.82118L74.9569 3.82132C72.611 4.77407 71.0798 5.32868 69.6015 5.65234C68.1227 5.97612 66.6989 6.06835 64.5684 6.0991H64.5677C62.252 6.0991 60.6885 6.00696 59.1856 5.64442C57.6833 5.28204 56.2444 4.65015 54.177 3.57497C54.1736 3.57389 54.1709 3.57418 54.1659 3.57702C54.1578 3.58174 54.1453 3.59343 54.13 3.61811C54.0996 3.6673 54.0685 3.75095 54.0384 3.86986C53.9786 4.10608 53.9268 4.46405 53.8844 4.91671C53.7998 5.82113 53.7535 7.09476 53.7535 8.50759V13.6919L55.6276 14.1133C55.9839 14.1904 56.2761 14.2717 56.509 14.3623C56.7417 14.4528 56.9182 14.5538 57.0406 14.6716C57.1642 14.7905 57.232 14.9262 57.2467 15.0822C57.2613 15.2364 57.2236 15.4062 57.145 15.5944C55.9416 18.7282 55.2177 20.8912 54.8251 22.8611C54.4326 24.8302 54.3708 26.6081 54.4942 28.9719L54.4942 28.9722C54.5867 30.9379 54.7409 32.3169 55.0328 33.4798C55.3246 34.6418 55.7545 35.59 56.401 36.6935L56.401 36.6936C60.1571 43.1311 66.9909 46.7471 74.0697 46.1956C76.505 45.9807 78.2898 45.6434 80.2358 44.8622C82.183 44.0805 84.2937 42.8536 87.3797 40.8564C89.8192 39.2576 91.6755 38.2559 93.3795 37.7083C95.085 37.1603 96.6356 37.0679 98.4623 37.2837C98.4623 37.2837 98.4624 37.2837 98.4624 37.2837L100.567 37.5232V32.7852V28.0411H97.0368C91.9873 28.0411 88.3547 29.266 82.8668 32.8884L82.8663 32.8887C79.1936 35.2549 76.6252 36.6117 74.4629 37.0979C72.2957 37.5852 70.5396 37.1973 68.4948 36.0868C63.4019 33.4274 61.9839 26.94 65.0786 20.8389L65.0789 20.8383C66.2208 18.6565 67.0576 17.3126 68.0445 16.3995C69.0333 15.4848 70.1692 15.0058 71.9005 14.544L71.9013 14.5438C73.6261 14.1145 77.0803 12.8863 79.6103 11.8418L79.6103 11.8418C83.196 10.3644 85.4237 9.87162 89.5029 9.62546L89.5035 9.62543C92.0348 9.50249 93.6452 9.51747 95.1566 9.83387C96.6673 10.1501 98.0759 10.7669 100.204 11.8416C100.209 11.8373 100.218 11.8267 100.23 11.8045C100.256 11.7564 100.282 11.6742 100.308 11.5574C100.359 11.3254 100.405 10.9728 100.444 10.5239C100.521 9.62691 100.567 8.3531 100.567 6.90957V1.72436L97.8889 1.05772C96.2904 0.659809 93.3019 0.459942 90.293 0.459942C87.2842 0.459942 84.2645 0.659782 82.604 1.05786Z" fill="#06BCC1" stroke="white" stroke-width="0.1"/>
<path d="M147.861 1.85321L147.86 1.85353C144.537 3.38565 142.078 5.77398 140.849 8.89461L140.849 8.89569L140.046 10.801L140.033 10.8316H140H130.926H121.852H121.832L121.817 10.8178L118.731 7.86761C115.836 5.10749 112.391 3.45614 109.321 3.45614C109.012 3.45614 108.788 3.47602 108.621 3.5646C108.458 3.65097 108.341 3.8075 108.258 4.10338C108.175 4.40079 108.129 4.83172 108.104 5.45657C108.079 6.08058 108.075 6.89394 108.075 7.95435V12.4001L109.886 12.7608L109.887 12.7609C111.076 13.0103 112.198 13.8814 113.006 15.1805L113.006 15.1811C113.566 16.1106 113.876 16.9018 114.047 18.798C114.217 20.6907 114.248 23.6896 114.248 29.0359V40.8722L116.757 42.6396L116.758 42.64C118.545 43.9285 120.129 44.7858 121.928 45.3216C123.727 45.8575 125.743 46.0724 128.395 46.0724C133.938 46.0724 138.617 44.1719 142.372 40.4324C144.591 38.2227 145.928 36.4315 146.758 33.8836C147.589 31.3327 147.913 28.0203 148.098 22.765C148.191 20.1836 148.283 18.1771 148.427 16.5977C148.571 15.0188 148.766 13.8635 149.065 12.9858C149.365 12.1067 149.769 11.5049 150.33 11.0343C150.889 10.565 151.601 10.2284 152.512 9.87476C152.512 9.87469 152.513 9.87461 152.513 9.87453L154.704 8.96543L154.827 4.69542L154.949 0.38303H152.963C152.415 0.38303 151.556 0.550392 150.623 0.818996C149.692 1.08726 148.692 1.4551 147.861 1.85321ZM123.754 36.337L123.716 36.328L123.716 36.2897L123.53 28.9757L123.53 28.9752C123.499 26.9465 123.499 25.0099 123.523 23.5266C123.534 22.7849 123.552 22.1563 123.574 21.6859C123.585 21.4508 123.597 21.2548 123.611 21.1039C123.624 20.9545 123.639 20.8452 123.656 20.7862L123.655 20.7861L123.657 20.7813C123.728 20.6064 123.916 20.4733 124.226 20.3685C124.538 20.2629 124.986 20.1818 125.597 20.1202C126.819 19.997 128.704 19.951 131.482 19.951H138.889H138.939V20.0009V24.3033C138.939 25.5041 138.846 26.8125 138.692 27.9593C138.537 29.1042 138.321 30.0934 138.071 30.6537C137.17 32.8179 135.262 34.654 133.032 35.8104C130.802 36.9668 128.244 37.447 126.037 36.8902C126.037 36.8901 126.037 36.8901 126.037 36.8901L123.754 36.337Z" fill="#06BCC1" stroke="white" stroke-width="0.1"/>
<path d="M0.05 22.5211V28.0036L2.06576 26.2327L2.06585 26.2326C3.33903 25.1195 5.19891 24.2562 7.241 23.7479C9.28353 23.2395 11.5125 23.0851 13.5261 23.3936C15.1374 23.6404 18.4752 24.7487 21.0075 25.8556C24.3089 27.2688 26.7435 28.143 29.0841 28.626C31.4243 29.1089 33.6728 29.2011 36.6023 29.0476L36.6023 29.0476C40.1787 28.8634 42.3935 28.3725 44.2985 27.4548C44.2988 27.4547 44.299 27.4546 44.2992 27.4545L46.8635 26.117V20.923C46.8635 19.6019 46.8404 18.5624 46.7817 17.7759C46.7228 16.9873 46.6286 16.4596 46.49 16.1575C46.4209 16.0068 46.3439 15.9195 46.2619 15.8801C46.1819 15.8416 46.0872 15.8439 45.9701 15.8953C45.852 15.9471 45.7158 16.047 45.5597 16.1956C45.4041 16.3437 45.231 16.5378 45.0388 16.7751L45.0385 16.7755C43.5753 18.5423 40.7196 19.6202 37.4661 19.928C34.2104 20.236 30.5445 19.7742 27.4496 18.4491C17.8849 14.394 11.2927 13.2315 6.00042 14.5179C4.70604 14.8862 2.85794 15.561 1.87413 16.0508C1.40969 16.282 1.06851 16.4561 0.813673 16.6732C0.561577 16.8879 0.39295 17.146 0.27961 17.5485C0.165595 17.9534 0.107819 18.5034 0.0789023 19.3009C0.0500079 20.0978 0.05 21.1378 0.05 22.5211Z" fill="#06BCC1" stroke="white" stroke-width="0.1"/>
</svg>
